<svg width="200" height="200" viewBox="0 0 200 200" fill="none" xmlns="http://www.w3.org/2000/svg">
<path fill-rule="evenodd" clip-rule="evenodd" d="M157.602 43.6576L102.263 11.7078C100.629 10.7641 98.6148 10.7641 96.9803 11.7078L41.6415 43.6576C40.0069 44.6014 39 46.3454 39 48.2329V112.133C39 114.02 40.0069 115.764 41.6415 116.708L96.9803 148.658C98.6148 149.601 100.629 149.601 102.263 148.658L157.602 116.708C159.237 115.764 160.244 114.02 160.244 112.133V48.2329C160.244 46.3454 159.237 44.6014 157.602 43.6576ZM98.4389 13.9211C99.2296 13.525 100.171 13.5498 100.943 13.9954L156.281 45.9452L156.408 46.023C157.15 46.5091 157.602 47.3388 157.602 48.2329V112.133L157.598 112.281C157.548 113.167 157.056 113.973 156.281 114.42L100.943 146.37L100.805 146.444C100.014 146.84 99.0729 146.816 98.301 146.37L42.9623 114.42L42.8359 114.342C42.0934 113.856 41.6415 113.027 41.6415 112.133V48.2329L41.6457 48.0845C41.6954 47.1985 42.188 46.3923 42.9623 45.9452L98.301 13.9954L98.4389 13.9211Z" fill="#81CFB3"/>
<rect x="99" y="42" width="2" height="76" rx="1" fill="#81CFB3"/>
<mask id="mask0" mask-type="alpha" maskUnits="userSpaceOnUse" x="54" y="52" width="43" height="57">
<rect x="54" y="52" width="43" height="57" fill="#C4C4C4"/>
</mask>
<g mask="url(#mask0)">
<path d="M114 105V55H91.2973C88.9324 55 86.7568 55.493 84.7703 56.4789C82.7365 57.4178 80.9865 58.7089 79.5203 60.3521C78.0541 61.9484 76.9189 63.7559 76.1149 65.7746C75.2635 67.7934 74.8378 69.8357 74.8378 71.9014C74.8378 75 75.5946 77.8638 77.1081 80.493C78.5743 83.0751 80.5608 85.0469 83.0676 86.4084L72 105H84.8412L94.4899 88.8732H102.365V105H114ZM102.365 78.8028H91.723C90.3514 78.8028 89.1689 78.169 88.1757 76.9014C87.1824 75.5869 86.6858 73.9202 86.6858 71.9014C86.6858 69.8826 87.2534 68.2629 88.3885 67.0423C89.5236 65.7746 90.7534 65.1408 92.0777 65.1408H102.365V78.8028Z" fill="#509E83"/>
</g>
<mask id="mask1" mask-type="alpha" maskUnits="userSpaceOnUse" x="103" y="52" width="43" height="57">
<rect x="103" y="52" width="43" height="57" fill="#C4C4C4"/>
</mask>
<g mask="url(#mask1)">
<path d="M85 105V55H103.662C109.155 55 113.732 56.1268 117.394 58.3803C121.103 60.5869 123.897 63.5915 125.775 67.3944C127.653 71.1502 128.592 75.3286 128.592 79.9296C128.592 85 127.559 89.4131 125.493 93.169C123.427 96.9249 120.516 99.8357 116.761 101.901C113.052 103.967 108.685 105 103.662 105H85ZM116.831 79.9296C116.831 75.5164 115.681 71.9484 113.38 69.2254C111.08 66.5023 107.84 65.1408 103.662 65.1408H96.5493V94.8592H103.662C106.479 94.8592 108.873 94.2254 110.845 92.9577C112.817 91.6432 114.296 89.8592 115.282 87.6056C116.315 85.3521 116.831 82.7934 116.831 79.9296Z" fill="#509E83"/>
</g>
<path d="M39.904 188.488C39.696 188.488 39.52 188.416 39.376 188.272C39.232 188.128 39.16 187.952 39.16 187.744C39.16 187.536 39.232 187.36 39.376 187.216C39.52 187.072 39.696 187 39.904 187H51.568C51.776 187 51.944 187.072 52.072 187.216C52.216 187.36 52.288 187.536 52.288 187.744C52.288 187.952 52.216 188.128 52.072 188.272C51.944 188.416 51.776 188.488 51.568 188.488H39.904ZM54.37 187C54.162 187 53.986 186.936 53.842 186.808C53.714 186.664 53.65 186.488 53.65 186.28V168.976C53.65 168.752 53.714 168.576 53.842 168.448C53.986 168.32 54.162 168.256 54.37 168.256H58.954C60.122 168.256 61.154 168.504 62.05 169C62.962 169.48 63.674 170.144 64.186 170.992C64.698 171.84 64.954 172.824 64.954 173.944C64.954 175.256 64.586 176.392 63.85 177.352C63.114 178.296 62.138 178.944 60.922 179.296L65.05 185.896C65.258 186.216 65.298 186.48 65.17 186.688C65.058 186.896 64.818 187 64.45 187C64.274 187 64.138 186.968 64.042 186.904C63.962 186.824 63.882 186.728 63.802 186.616L59.386 179.56C59.242 179.56 59.098 179.56 58.954 179.56H55.09V186.28C55.09 186.488 55.026 186.664 54.898 186.808C54.77 186.936 54.594 187 54.37 187ZM55.09 178.12H58.954C59.85 178.12 60.634 177.944 61.306 177.592C61.994 177.224 62.53 176.728 62.914 176.104C63.314 175.48 63.514 174.76 63.514 173.944C63.514 173.112 63.314 172.376 62.914 171.736C62.53 171.096 61.994 170.6 61.306 170.248C60.634 169.88 59.85 169.696 58.954 169.696H55.09V178.12ZM73.8196 187.12C72.5556 187.12 71.4276 186.84 70.4356 186.28C69.4596 185.704 68.6916 184.912 68.1316 183.904C67.5716 182.896 67.2916 181.744 67.2916 180.448C67.2916 179.136 67.5556 177.984 68.0836 176.992C68.6116 175.984 69.3396 175.192 70.2676 174.616C71.1956 174.04 72.2596 173.752 73.4596 173.752C74.6436 173.752 75.6916 174.032 76.6036 174.592C77.5156 175.136 78.2276 175.896 78.7396 176.872C79.2516 177.832 79.5076 178.944 79.5076 180.208C79.5076 180.416 79.4436 180.584 79.3156 180.712C79.1876 180.824 79.0196 180.88 78.8116 180.88H68.7556C68.8036 181.84 69.0516 182.688 69.4996 183.424C69.9476 184.16 70.5396 184.736 71.2756 185.152C72.0276 185.568 72.8756 185.776 73.8196 185.776C74.4436 185.776 75.0676 185.672 75.6916 185.464C76.3316 185.24 76.8356 184.952 77.2036 184.6C77.3316 184.472 77.4836 184.408 77.6596 184.408C77.8516 184.392 78.0116 184.44 78.1396 184.552C78.3156 184.696 78.4036 184.856 78.4036 185.032C78.4196 185.208 78.3476 185.368 78.1876 185.512C77.6756 185.976 77.0036 186.36 76.1716 186.664C75.3556 186.968 74.5716 187.12 73.8196 187.12ZM73.4596 175.096C72.6276 175.096 71.8756 175.288 71.2036 175.672C70.5316 176.056 69.9796 176.592 69.5476 177.28C69.1316 177.952 68.8756 178.736 68.7796 179.632H78.1156C78.0036 178.288 77.5236 177.2 76.6756 176.368C75.8276 175.52 74.7556 175.096 73.4596 175.096ZM91.2766 187.24C89.9806 187.24 88.7646 187 87.6286 186.52C86.5086 186.024 85.5246 185.344 84.6766 184.48C83.8446 183.6 83.1886 182.576 82.7086 181.408C82.2446 180.24 82.0126 178.976 82.0126 177.616C82.0126 176.272 82.2446 175.024 82.7086 173.872C83.1886 172.704 83.8446 171.688 84.6766 170.824C85.5246 169.944 86.5086 169.256 87.6286 168.76C88.7486 168.264 89.9646 168.016 91.2766 168.016C92.5086 168.016 93.5646 168.176 94.4446 168.496C95.3406 168.816 96.2366 169.344 97.1326 170.08C97.3246 170.24 97.4526 170.392 97.5166 170.536C97.5806 170.68 97.6126 170.856 97.6126 171.064C97.6126 171.368 97.5006 171.624 97.2766 171.832C97.0686 172.024 96.8126 172.136 96.5086 172.168C96.2046 172.184 95.9086 172.08 95.6206 171.856C95.0286 171.344 94.4126 170.952 93.7726 170.68C93.1486 170.408 92.3166 170.272 91.2766 170.272C90.3326 170.272 89.4446 170.464 88.6126 170.848C87.7806 171.232 87.0446 171.76 86.4046 172.432C85.7806 173.104 85.2926 173.888 84.9406 174.784C84.5886 175.664 84.4126 176.608 84.4126 177.616C84.4126 178.64 84.5886 179.6 84.9406 180.496C85.2926 181.376 85.7806 182.152 86.4046 182.824C87.0446 183.496 87.7806 184.024 88.6126 184.408C89.4446 184.776 90.3326 184.96 91.2766 184.96C92.0926 184.96 92.8606 184.824 93.5806 184.552C94.3166 184.264 95.0206 183.872 95.6926 183.376C95.9806 183.168 96.2606 183.08 96.5326 183.112C96.8206 183.128 97.0606 183.24 97.2526 183.448C97.4446 183.64 97.5406 183.912 97.5406 184.264C97.5406 184.6 97.4126 184.896 97.1566 185.152C95.4286 186.544 93.4686 187.24 91.2766 187.24ZM106.284 187.096C104.988 187.096 103.844 186.816 102.852 186.256C101.86 185.68 101.076 184.896 100.5 183.904C99.9399 182.896 99.6599 181.744 99.6599 180.448C99.6599 179.136 99.9399 177.984 100.5 176.992C101.076 175.984 101.86 175.2 102.852 174.64C103.844 174.064 104.988 173.776 106.284 173.776C107.564 173.776 108.7 174.064 109.692 174.64C110.684 175.2 111.46 175.984 112.02 176.992C112.596 177.984 112.884 179.136 112.884 180.448C112.884 181.744 112.604 182.896 112.044 183.904C111.484 184.896 110.708 185.68 109.716 186.256C108.724 186.816 107.58 187.096 106.284 187.096ZM106.284 184.936C107.116 184.936 107.852 184.744 108.492 184.36C109.132 183.976 109.628 183.448 109.98 182.776C110.348 182.104 110.532 181.328 110.532 180.448C110.532 179.568 110.348 178.792 109.98 178.12C109.628 177.432 109.132 176.896 108.492 176.512C107.852 176.128 107.116 175.936 106.284 175.936C105.452 175.936 104.716 176.128 104.076 176.512C103.436 176.896 102.932 177.432 102.564 178.12C102.196 178.792 102.012 179.568 102.012 180.448C102.012 181.328 102.196 182.104 102.564 182.776C102.932 183.448 103.436 183.976 104.076 184.36C104.716 184.744 105.452 184.936 106.284 184.936ZM122.479 187.096C121.231 187.096 120.103 186.808 119.095 186.232C118.103 185.64 117.311 184.84 116.719 183.832C116.143 182.824 115.855 181.688 115.855 180.424C115.855 179.16 116.119 178.032 116.647 177.04C117.191 176.032 117.927 175.24 118.855 174.664C119.783 174.072 120.831 173.776 121.999 173.776C122.943 173.776 123.815 173.976 124.615 174.376C125.415 174.76 126.087 175.288 126.631 175.96V169.48C126.631 169.112 126.743 168.816 126.967 168.592C127.207 168.368 127.503 168.256 127.855 168.256C128.223 168.256 128.519 168.368 128.743 168.592C128.967 168.816 129.079 169.112 129.079 169.48V180.424C129.079 181.688 128.783 182.824 128.191 183.832C127.615 184.84 126.831 185.64 125.839 186.232C124.847 186.808 123.727 187.096 122.479 187.096ZM122.479 184.936C123.295 184.936 124.023 184.744 124.663 184.36C125.303 183.96 125.807 183.416 126.175 182.728C126.543 182.04 126.727 181.272 126.727 180.424C126.727 179.56 126.543 178.792 126.175 178.12C125.807 177.448 125.303 176.92 124.663 176.536C124.023 176.136 123.295 175.936 122.479 175.936C121.679 175.936 120.951 176.136 120.295 176.536C119.655 176.92 119.143 177.448 118.759 178.12C118.391 178.792 118.207 179.56 118.207 180.424C118.207 181.272 118.391 182.04 118.759 182.728C119.143 183.416 119.655 183.96 120.295 184.36C120.951 184.744 121.679 184.936 122.479 184.936ZM134.866 187C134.514 187 134.218 186.888 133.978 186.664C133.754 186.424 133.642 186.128 133.642 185.776V175.096C133.642 174.728 133.754 174.432 133.978 174.208C134.218 173.984 134.514 173.872 134.866 173.872C135.234 173.872 135.53 173.984 135.754 174.208C135.978 174.432 136.09 174.728 136.09 175.096V185.776C136.09 186.128 135.978 186.424 135.754 186.664C135.53 186.888 135.234 187 134.866 187ZM134.866 171.736C134.434 171.736 134.058 171.584 133.738 171.28C133.434 170.96 133.282 170.584 133.282 170.152C133.282 169.72 133.434 169.352 133.738 169.048C134.058 168.728 134.434 168.568 134.866 168.568C135.298 168.568 135.666 168.728 135.97 169.048C136.29 169.352 136.45 169.72 136.45 170.152C136.45 170.584 136.29 170.96 135.97 171.28C135.666 171.584 135.298 171.736 134.866 171.736ZM142.06 187C141.756 187 141.484 186.888 141.244 186.664C141.004 186.44 140.884 186.144 140.884 185.776V176.416H139.852C139.516 176.416 139.244 176.32 139.036 176.128C138.828 175.936 138.724 175.696 138.724 175.408C138.724 175.088 138.828 174.832 139.036 174.64C139.244 174.448 139.516 174.352 139.852 174.352H140.884V173.944C140.884 172.792 141.108 171.792 141.556 170.944C142.02 170.096 142.66 169.44 143.476 168.976C144.292 168.496 145.236 168.256 146.308 168.256C146.66 168.256 146.948 168.36 147.172 168.568C147.412 168.776 147.532 169.04 147.532 169.36C147.532 169.664 147.412 169.928 147.172 170.152C146.948 170.36 146.66 170.464 146.308 170.464C145.412 170.464 144.692 170.76 144.148 171.352C143.604 171.944 143.332 172.728 143.332 173.704V174.352H145.78C146.116 174.352 146.388 174.448 146.596 174.64C146.804 174.832 146.908 175.088 146.908 175.408C146.908 175.696 146.804 175.936 146.596 176.128C146.388 176.32 146.116 176.416 145.78 176.416H143.332V185.776C143.332 186.144 143.22 186.44 142.996 186.664C142.772 186.888 142.46 187 142.06 187ZM151.809 192.76C151.649 192.76 151.457 192.712 151.233 192.616C150.529 192.296 150.337 191.792 150.657 191.104L153.057 185.704L147.657 175.456C147.497 175.152 147.473 174.864 147.585 174.592C147.713 174.304 147.929 174.096 148.233 173.968C148.537 173.84 148.825 173.832 149.097 173.944C149.369 174.04 149.577 174.24 149.721 174.544L154.113 183.28L157.977 174.568C158.297 173.896 158.801 173.704 159.489 173.992C160.209 174.296 160.409 174.8 160.089 175.504L152.745 192.016C152.553 192.512 152.241 192.76 151.809 192.76Z" fill="white" fill-opacity="0.75"/>
</svg>
