<?xml version="1.0" standalone="no"?>
<!DOCTYPE svg PUBLIC "-//W3C//DTD SVG 20010904//EN"
 "http://www.w3.org/TR/2001/REC-SVG-20010904/DTD/svg10.dtd">
<svg version="1.0" xmlns="http://www.w3.org/2000/svg"
 width="512.000000pt" height="512.000000pt" viewBox="0 0 512.000000 512.000000"
 preserveAspectRatio="xMidYMid meet">
<metadata>
Created by potrace 1.14, written by Peter Selinger 2001-2017
</metadata>
<g transform="translate(0.000000,512.000000) scale(0.100000,-0.100000)"
fill="#000000" stroke="none">
<path d="M1776 3897 c-477 -276 -737 -432 -750 -450 -21 -28 -21 -32 -21 -892
0 -859 0 -864 21 -892 13 -18 271 -173 745 -448 715 -414 725 -419 779 -419
54 0 65 5 779 419 471 273 731 430 745 448 21 28 21 33 24 885 2 837 2 858
-18 889 -24 41 29 8 -791 481 -634 366 -700 402 -740 402 -39 -1 -120 -45
-773 -423z m1507 -47 c392 -226 722 -422 735 -436 l22 -25 0 -834 0 -834 -22
-25 c-29 -32 -1440 -846 -1467 -846 -27 0 -1439 814 -1469 846 l-22 25 0 834
0 834 23 25 c30 34 1436 845 1465 846 13 0 343 -185 735 -410z"/>
<path d="M2540 2560 c0 -963 0 -970 20 -970 20 0 20 7 20 970 0 963 0 970 -20
970 -20 0 -20 -7 -20 -970z"/>
<path d="M2219 3181 c-109 -35 -209 -126 -262 -239 -25 -54 -32 -83 -35 -154
-7 -148 46 -273 153 -358 22 -18 42 -33 44 -35 2 -3 -58 -107 -133 -234 -75
-126 -136 -232 -136 -235 0 -3 73 -6 163 -6 l162 0 120 205 c117 199 121 205
153 205 l32 0 0 130 0 130 -77 0 c-95 0 -135 20 -163 83 -38 82 -22 174 39
232 30 28 39 30 117 34 l84 3 0 129 0 129 -102 -1 c-70 0 -121 -6 -159 -18z"/>
<path d="M2640 3073 l0 -130 60 -6 c79 -9 139 -38 193 -96 69 -74 91 -142 91
-281 0 -96 -4 -124 -22 -172 -46 -116 -147 -193 -268 -205 l-54 -6 0 -128 0
-129 44 0 c84 0 199 29 285 71 206 101 321 306 321 569 0 124 -21 217 -70 316
-94 192 -266 303 -495 320 l-85 7 0 -130z"/>
</g>
</svg>
