<svg viewBox="0 0 180 180" fill="none" xmlns="http://www.w3.org/2000/svg">
    <g clip-path="url(#clip0_104:3)">
        <path d="M10 143H180" stroke="black" />
        <path d="M10 134H180" stroke="black" />
        <path d="M10 126H180" stroke="black" />
        <path d="M10 117H180" stroke="black" />
        <path d="M10 108H180" stroke="black" />
        <path d="M10 72H180" stroke="black" />
        <path d="M10 63H180" stroke="black" />
        <path d="M10 54H180" stroke="black" />
        <path d="M10 45H180" stroke="black" />
        <path d="M10 36H180" stroke="black" />
        <path fill-rule="evenodd" clip-rule="evenodd"
            d="M28.7821 18.081C28.7146 18.1165 28.472 18.365 28.2294 18.6152C25.7556 21.1248 24.2457 24.3071 23.8614 27.8426C23.7941 28.446 23.7941 29.8961 23.8278 30.8527C23.9693 34.4219 24.5152 37.1055 25.9307 41.6668L26.0993 42.3058L25.1018 43.6156C21.873 47.8237 20.6327 49.6962 19.5677 51.9627C18.5027 54.2238 17.9838 56.2755 17.9163 58.542C17.8152 62.6738 19.6015 66.5714 22.7964 69.0047C25.4119 71.0209 28.5731 71.8391 31.977 71.3404C32.2534 71.3066 32.496 71.2711 32.496 71.3066V73.0389C32.496 76.9985 32.2534 78.6616 31.431 80.3956C30.9121 81.4907 30.2919 82.3018 29.537 82.8697C28.6809 83.5424 27.8182 83.8263 26.7531 83.8263C25.5466 83.8263 24.4816 83.4732 23.5177 82.7313C23.2143 82.5165 22.6953 81.9823 22.4863 81.6699L22.3179 81.4552L22.4527 81.5244C23.6255 81.9486 25.1354 81.4214 25.9307 80.3264C26.5778 79.4389 26.7531 78.3421 26.4094 77.1778C25.9982 75.694 24.859 74.7037 23.4502 74.6345C22.1089 74.5919 20.7338 75.2645 20.0125 76.4359C19.4666 77.3162 19.3251 78.3776 19.6351 79.7566C20.0125 81.5936 21.1854 83.2229 22.8302 84.215C23.902 84.8877 25.1691 85.2764 26.4431 85.3456C28.7146 85.4148 30.7099 84.3197 32.1523 82.1278C33.1162 80.6441 33.6622 78.9455 33.8037 76.8601C33.9386 75.4793 33.9386 74.8758 33.9722 72.9004V70.8824L34.316 70.7369C35.7247 70.1761 36.9313 69.2531 37.9626 67.9433C39.7151 65.7177 40.3017 62.7856 39.5804 59.9228C38.9265 57.2659 37.2077 55.0065 34.9025 53.8351C33.8037 53.2725 32.7319 52.9885 31.4648 52.9193L30.8783 52.8785L30.7435 52.2821C30.3256 50.7558 29.537 48.1432 28.7482 45.6336L28.5731 45.1349L29.1595 44.322C31.5996 41.106 32.9409 38.7348 33.8037 36.3636C34.5924 34.138 34.8687 31.8023 34.5924 29.6796C34.1137 25.8264 32.0108 21.0556 29.6785 18.4697C29.2606 18.0118 29.0583 17.9088 28.7821 18.081ZM30.9121 23.212C30.9794 23.3168 31.5321 24.4456 31.7007 24.8342C31.8758 25.333 32.0444 26.0411 32.1523 26.6091C32.2198 27.2054 32.2198 29.1879 32.1523 29.7914C31.7749 33.1121 30.5682 36.0104 27.9529 39.7606C27.717 40.1138 27.4744 40.4688 27.3733 40.6072L27.198 40.822L27.0969 40.4333C26.4767 38.4508 25.8567 35.9412 25.6545 34.4911C25.5466 33.7848 25.5466 32.4394 25.6206 31.733C25.9307 29.3956 26.7195 27.4557 28.1282 25.6524C28.472 25.1874 29.2944 24.3426 29.746 23.9876C30.0897 23.7037 30.811 23.1765 30.8446 23.1765C30.8446 23.1765 30.8783 23.212 30.9121 23.212ZM27.8518 47.7208C28.6404 50.2304 29.4022 52.9548 29.3684 52.9885C29.3684 52.9885 29.1933 53.0577 29.0583 53.0577C28.6067 53.1625 27.8518 53.4127 27.4406 53.6275C26.6857 54.0144 26.0993 54.4031 25.5128 55.0065C23.7267 56.879 23.0728 59.6726 23.8614 62.1822C24.1715 63.2435 24.7579 64.2002 25.5466 65.0113C26.1668 65.6484 26.7868 66.1064 27.6496 66.5288C28.0608 66.7435 28.1282 66.7435 28.3372 66.7435C28.5395 66.7435 28.5731 66.7435 28.7146 66.6406C28.9168 66.495 29.0583 66.2111 29.0583 65.9679C29.0247 65.6484 28.9168 65.5455 28.472 65.2598C26.3419 64.0191 25.3107 61.9674 25.8904 59.9228C26.3083 58.3965 27.5755 57.2659 29.328 56.879C29.6785 56.7742 30.3256 56.6979 30.366 56.7334C30.366 56.7334 30.5009 57.2322 30.7099 58.2243C31.357 60.9824 31.8086 63.5612 32.0848 66.0371C32.2871 67.5901 32.4624 69.6773 32.3882 69.7536C32.3545 69.7874 31.6671 69.8921 31.0131 69.9258C28.8832 70.0642 27.0632 69.7111 25.2365 68.7615C24.2052 68.2273 23.3829 67.5901 22.5942 66.8127C21.3203 65.4692 20.5991 63.9854 20.4237 62.3206C20.3564 61.8627 20.3901 60.8031 20.4576 60.1305C20.8417 56.9819 22.0753 54.0499 24.6569 50.3689C25.378 49.3075 27.407 46.5902 27.4744 46.5902L27.8518 47.7208ZM32.496 56.9127C35.1451 57.5161 37.0998 59.7063 37.5851 62.5354C37.6189 62.7856 37.6189 63.0696 37.6189 63.5967C37.6189 64.2339 37.6189 64.3723 37.5514 64.761C37.4772 65.045 37.4099 65.3982 37.3425 65.5455C36.9313 66.779 36.0348 68.0196 35.0034 68.726C34.6261 69.0047 33.9048 69.3579 33.8711 69.3224C33.8711 69.2886 33.8375 69.081 33.8375 68.8662C33.7296 67.4854 33.4263 64.8373 33.1162 62.9578C32.8398 61.19 32.2534 58.1888 31.9433 56.9482L31.8758 56.7742L31.977 56.8097C32.0444 56.8097 32.2534 56.8435 32.496 56.9127Z"
            fill="black" />
        <path fill-rule="evenodd" clip-rule="evenodd"
            d="M6.35632 35.7602C5.15653 37.3486 3.43769 41.0651 2.75005 43.005C1.71884 47.0748 1.37511 52.0248 1.71884 56.8026C1.88726 58.3894 2.23117 61.9248 2.75005 64.7539C3.6061 71.4788 3.78142 74.3079 3.78142 77.137C3.6061 81.7338 2.40631 85.4415 0.512323 87.9174C0.168416 88.2705 0 88.6237 0 88.8048C0 88.9858 0.168416 89.339 0.512323 89.6922C2.40631 92.1681 3.6061 95.8757 3.78142 100.3C3.78142 103.302 3.6061 106.131 2.75005 112.675C2.23117 115.685 1.88726 119.22 1.71884 120.635C1.37511 125.585 1.71884 130.535 2.75005 134.423C3.6061 137.606 6.70006 143.09 7.56284 143.09C7.90658 143.09 8.25031 142.737 8.25031 142.382C8.25031 142.203 7.90658 141.675 7.56284 141.141C5.50026 138.14 4.63748 135.132 4.29374 130.535C4.29374 127.706 4.46889 125.051 5.32495 118.333C5.66868 115.685 6.01259 112.502 6.18773 111.26C6.87537 102.775 5.50027 95.5225 2.06258 90.2193C1.54353 89.5112 1.19979 88.8048 1.19979 88.8048C1.19979 88.8048 1.54353 88.0984 2.06258 87.3902C5.50027 82.087 6.87537 74.835 6.18773 66.1685C6.01259 65.1071 5.66868 61.9248 5.32495 59.0975C4.46889 52.559 4.29374 49.9038 4.29374 47.0748C4.63748 42.4779 5.50026 39.4696 7.56284 36.4683C8.25031 35.407 8.42563 35.0538 8.08189 34.7006C7.56284 34.3456 7.21911 34.5195 6.35632 35.7602Z"
            fill="black" />
        <path fill-rule="evenodd" clip-rule="evenodd"
            d="M25.2682 107.326C22.7314 107.591 20.4271 109.286 19.2457 111.762C18.7165 112.877 18.4519 113.992 18.3873 115.214C18.3873 115.792 18.4195 116.13 18.5552 116.535C19.0134 118.129 20.6272 119.244 22.2732 119.143C23.8546 119.038 25.1068 117.723 25.3327 115.991C25.436 115.386 25.3005 114.636 25.0357 114.099C24.3452 112.605 22.6346 111.828 21.2209 112.338L20.9564 112.438L21.021 112.233C21.7761 110.202 23.1962 108.715 24.8422 108.269C26.4236 107.865 27.9986 108.302 29.2186 109.457C31.3616 111.556 32.1814 115.792 31.1291 119.516C30.8968 120.26 30.7031 120.836 30.3093 121.613C29.5155 123.274 28.5278 124.628 27.0111 126.221C25.0035 128.253 22.4022 130.218 18.7165 132.448C18.0259 132.893 17.9613 132.96 17.9613 133.126C17.9613 133.366 18.155 133.572 18.3873 133.572C18.4195 133.572 18.5164 133.538 18.5874 133.505C18.652 133.464 18.9812 133.298 19.3104 133.165C26.3914 130.013 30.8323 126.865 33.369 123.173C34.886 120.937 35.6733 118.401 35.6733 115.792C35.6733 111.184 32.9043 108.137 28.1341 107.459C27.1466 107.287 25.9912 107.253 25.2682 107.326ZM38.0101 110.3C37.4162 110.44 36.9257 110.944 36.7901 111.556C36.5642 112.505 37.1192 113.455 38.0101 113.654C39.2623 113.96 40.3468 112.843 40.0498 111.556C39.8562 110.639 38.9331 110.069 38.0101 110.3ZM38.0101 118.739C37.4162 118.872 36.9257 119.376 36.7901 119.986C36.5642 120.937 37.1192 121.887 38.0101 122.092C39.2623 122.391 40.3468 121.275 40.0498 119.986C39.8562 119.077 38.9331 118.499 38.0101 118.739Z"
            fill="black" />
        <path d="M11.25 35V142" stroke="black" stroke-width="1.5" />
    </g>
    <defs>
        <clipPath id="clip0_104:3">
            <rect width="180" height="180" fill="white" />
        </clipPath>
    </defs>
</svg>